# File created by Blade
# Date/Time:  Fri Jan 16 19:18:57 2015
# Frame Rate: 120.000 fps
#------------------------------------------------------
:FULLY-SPECIFIED
:DEGREES
450
root 19.888742 35.746635 -22.234433 -167.888539 0.262420 -180.528278
Spine -26.286748 4.845617 0.577379
Head 20.855122 0.973427 -21.512798
LeftShoulder -19.577659 -48.410632 41.383037
LeftArm 33.929986 -41.830122 -2.213075
LeftForeArm -64.809963 -0.000000 89.320716
LeftHand 0.864853 -0.000000 -11.163365
LeftHandThumb1 -26.253704 0.000000 33.147579
RightShoulder -13.014903 26.573381 -64.506326
RightArm 135.136313 63.801798 90.337182
RightForeArm 45.984938 -0.000000 107.707904
RightHand 13.865553 0.000000 5.786119
RightHandThumb1 -24.326973 -0.000000 -32.862282
LeftUpLeg -3.067958 9.765213 -1.926178
LeftLeg -6.779207 -0.000000 0.000000
LeftFoot -19.171929 25.034712 -18.043622
LeftToeBase 23.741110 -0.000000 -0.000000
RightUpLeg -4.410420 -3.942637 -0.866441
RightLeg -2.656805 -0.000000 0.000000
RightFoot -21.666142 -25.866158 17.081161
RightToeBase 22.891230 -0.000000 -0.000000
451
root 19.884831 35.746459 -22.229228 -167.877575 0.199037 -180.540755
Spine -26.270507 4.860844 0.587365
Head 20.905405 0.982951 -21.561085
LeftShoulder -19.587877 -48.399171 41.326825
LeftArm 34.009603 -41.803159 -2.264756
LeftForeArm -64.842825 -0.000000 89.313656
LeftHand 0.832970 0.000000 -11.147357
LeftHandThumb1 -26.253704 0.000000 33.147579
RightShoulder -13.026481 26.697431 -64.582888
RightArm 134.842135 63.756767 90.122211
RightForeArm 45.984949 -0.000000 107.728806
RightHand 13.837612 -0.000000 5.817296
RightHandThumb1 -24.326973 -0.000000 -32.862282
LeftUpLeg -3.085600 9.722707 -1.939479
LeftLeg -6.797074 -0.000000 0.000000
LeftFoot -19.140972 25.026552 -18.031595
LeftToeBase 23.752807 -0.000000 -0.000000
RightUpLeg -4.418936 -3.975232 -0.874454
RightLeg -2.659599 -0.000000 0.000000
RightFoot -21.692866 -25.930799 17.010848
RightToeBase 23.097815 -0.000000 -0.000000
452
root 19.881086 35.746243 -22.224245 -167.871569 0.121739 -180.556156
Spine -26.252290 4.849357 0.601576
Head 20.942726 0.983388 -21.623818
LeftShoulder -19.619211 -48.353671 41.319822
LeftArm 34.057602 -41.791454 -2.358799
LeftForeArm -64.844423 -0.000000 89.342990
LeftHand 0.879104 -0.000000 -11.164243
LeftHandThumb1 -26.253704 0.000000 33.147579
RightShoulder -13.002021 26.670463 -64.585131
RightArm 134.945989 63.676606 90.224371
RightForeArm 45.907989 -0.000000 107.685352
RightHand 13.861307 -0.000000 5.826577
RightHandThumb1 -24.326973 -0.000000 -32.862282
LeftUpLeg -3.091790 9.628637 -1.944349
LeftLeg -6.826541 -0.000000 0.000000
LeftFoot -19.119963 25.051989 -18.026536
LeftToeBase 23.774678 -0.000000 -0.000000
RightUpLeg -4.417059 -4.023340 -0.882698
RightLeg -2.670810 -0.000000 0.000000
RightFoot -21.678356 -25.905467 17.045057
RightToeBase 23.050892 -0.000000 -0.000000
453
root 19.877620 35.746084 -22.218996 -167.866286 0.061974 -180.568655
Spine -26.227918 4.843910 0.613415
Head 20.967286 0.948041 -21.701769
LeftShoulder -19.596607 -48.307772 41.271850
LeftArm 34.046788 -41.789219 -2.324223
LeftForeArm -64.858489 0.000000 89.345670
LeftHand 0.885259 -0.000000 -11.098177
LeftHandThumb1 -26.253704 0.000000 33.147579
RightShoulder -13.034021 26.755268 -64.619331
RightArm 134.725265 63.563518 90.059282
RightForeArm 45.973128 0.000000 107.684218
RightHand 13.847902 0.000000 5.799519
RightHandThumb1 -24.326973 -0.000000 -32.862282
LeftUpLeg -3.104772 9.580085 -1.952354
LeftLeg -6.835694 -0.000000 0.000000
LeftFoot -19.107130 25.026053 -18.026011
LeftToeBase 23.763606 -0.000000 -0.000000
RightUpLeg -4.422550 -4.062182 -0.888723
RightLeg -2.671901 -0.000000 0.000000
RightFoot -21.691488 -25.952721 17.048366
RightToeBase 23.145406 -0.000000 -0.000000
454
root 19.873987 35.745821 -22.214619 -167.859950 -0.000002 -180.582949
Spine -26.213179 4.828830 0.630198
Head 20.980330 0.986307 -21.741725
LeftShoulder -19.569628 -48.270982 41.256638
LeftArm 33.988089 -41.776676 -2.285283
LeftForeArm -64.879904 -0.000000 89.360334
LeftHand 0.929562 -0.000000 -11.182242
LeftHandThumb1 -26.253704 0.000000 33.147579
RightShoulder -12.982496 26.697861 -64.567374
RightArm 134.992722 63.405240 90.310754
RightForeArm 46.185275 -0.000000 107.625888
RightHand 13.714990 -0.000000 5.983479
RightHandThumb1 -24.326973 -0.000000 -32.862282
LeftUpLeg -3.100645 9.480504 -1.956128
LeftLeg -6.877530 -0.000000 0.000000
LeftFoot -19.072508 25.058205 -18.019613
LeftToeBase 23.735187 -0.000000 -0.000000
RightUpLeg -4.420149 -4.089139 -0.901397
RightLeg -2.681680 -0.000000 0.000000
RightFoot -21.706803 -25.983577 17.059383
RightToeBase 22.987545 -0.000000 -0.000000
455
root 19.870831 35.745222 -22.210438 -167.849956 -0.059583 -180.589863
Spine -26.203846 4.789979 0.642851
Head 20.992056 1.008710 -21.732901
LeftShoulder -19.537303 -48.219007 41.261106
LeftArm 33.948157 -41.784007 -2.219461
LeftForeArm -64.880403 -0.000000 89.334963
LeftHand 0.901945 0.000000 -11.192087
LeftHandThumb1 -26.253704 0.000000 33.147579
RightShoulder -12.837886 26.524173 -64.425096
RightArm 135.593814 63.430062 90.818998
RightForeArm 46.371147 -0.000000 107.546473
RightHand 13.695770 0.000000 5.815904
RightHandThumb1 -24.326973 -0.000000 -32.862282
LeftUpLeg -3.109647 9.382374 -1.953116
LeftLeg -6.896166 -0.000000 0.000000
LeftFoot -19.067770 25.090447 -18.011596
LeftToeBase 23.766543 -0.000000 -0.000000
RightUpLeg -4.417729 -4.128476 -0.903076
RightLeg -2.703314 -0.000000 0.000000
RightFoot -21.689727 -25.964895 17.038054
RightToeBase 23.059003 -0.000000 -0.000000
456
root 19.867813 35.745033 -22.206112 -167.843871 -0.095219 -180.595771
Spine -26.186728 4.778006 0.656155
Head 20.996522 1.100204 -21.687743
LeftShoulder -19.515260 -48.227556 41.300318
LeftArm 33.910003 -41.756672 -2.172447
LeftForeArm -64.856521 -0.000000 89.302975
LeftHand 1.010169 -0.000000 -11.259696
LeftHandThumb1 -26.253704 0.000000 33.147579
RightShoulder -12.858831 26.622600 -64.435563
RightArm 135.389262 63.313995 90.698850
RightForeArm 46.167914 -0.000000 107.527258
RightHand 13.695237 0.000000 5.932206
RightHandThumb1 -24.326973 -0.000000 -32.862282
LeftUpLeg -3.111300 9.307576 -1.951046
LeftLeg -6.917882 -0.000000 0.000000
LeftFoot -19.051362 25.108452 -18.003175
LeftToeBase 23.798141 -0.000000 -0.000000
RightUpLeg -4.423393 -4.158439 -0.906529
RightLeg -2.707750 -0.000000 0.000000
RightFoot -21.688999 -25.963477 17.014449
RightToeBase 23.213892 -0.000000 -0.000000
457
root 19.866743 35.744050 -22.202409 -167.828550 -0.123999 -180.585801
Spine -26.169199 4.747081 0.677649
Head 20.978912 1.157639 -21.632530
LeftShoulder -19.554592 -48.254134 41.458112
LeftArm 33.827119 -41.715094 -2.134346
LeftForeArm -64.897716 0.000000 89.302570
LeftHand 0.984270 -0.000000 -11.274231
LeftHandThumb1 -26.253704 0.000000 33.147579
RightShoulder -12.835233 26.803411 -64.478836
RightArm 135.084870 63.416620 90.544134
RightForeArm 46.215151 -0.000000 107.540425
RightHand 13.765507 -0.000000 5.760139
RightHandThumb1 -24.326973 -0.000000 -32.862282
LeftUpLeg -3.144689 9.350433 -1.948337
LeftLeg -6.905946 -0.000000 0.000000
LeftFoot -19.038141 25.052531 -17.950443
LeftToeBase 23.787184 -0.000000 -0.000000
RightUpLeg -4.439028 -4.168681 -0.892100
RightLeg -2.709568 -0.000000 0.000000
RightFoot -21.693326 -25.991606 17.027627
RightToeBase 23.065627 -0.000000 -0.000000
458
root 19.865172 35.743623 -22.199083 -167.819183 -0.140356 -180.579462
Spine -26.151999 4.728581 0.688163
Head 20.959867 1.184884 -21.583359
LeftShoulder -19.557544 -48.298700 41.599931
LeftArm 33.780091 -41.687565 -2.116212
LeftForeArm -64.846808 -0.000000 89.273487
LeftHand 0.942854 0.000000 -11.340205
LeftHandThumb1 -26.253704 0.000000 33.147579
RightShoulder -12.826712 26.912742 -64.465103
RightArm 134.932241 63.453078 90.500884
RightForeArm 46.241190 0.000000 107.545862
RightHand 13.668374 -0.000000 5.686666
RightHandThumb1 -24.326973 -0.000000 -32.862282
LeftUpLeg -3.150868 9.320472 -1.942601
LeftLeg -6.922363 -0.000000 0.000000
LeftFoot -19.026042 25.071952 -17.917619
LeftToeBase 23.786788 -0.000000 -0.000000
RightUpLeg -4.453605 -4.186514 -0.885208
RightLeg -2.706014 -0.000000 0.000000
RightFoot -21.696736 -25.996245 17.021569
RightToeBase 23.100976 -0.000000 -0.000000
459
root 19.864412 35.743604 -22.195810 -167.804523 -0.146601 -180.573455
Spine -26.145468 4.703940 0.684233
Head 20.959113 1.211169 -21.489170
LeftShoulder -19.604657 -48.345208 41.782692
LeftArm 33.868479 -41.674772 -2.204120
LeftForeArm -64.786943 -0.000000 89.185660
LeftHand 0.945109 0.000000 -11.450166
LeftHandThumb1 -26.253704 0.000000 33.147579
RightShoulder -12.869125 27.100849 -64.476935
RightArm 134.530512 63.488858 90.291598
RightForeArm 46.208906 -0.000000 107.566750
RightHand 13.627993 -0.000000 5.591164
RightHandThumb1 -24.326973 -0.000000 -32.862282
LeftUpLeg -3.162372 9.299891 -1.937743
LeftLeg -6.940113 -0.000000 0.000000
LeftFoot -19.023522 25.085469 -17.912559
LeftToeBase 23.820521 -0.000000 -0.000000
RightUpLeg -4.472110 -4.183343 -0.879552
RightLeg -2.708760 -0.000000 0.000000
RightFoot -21.678476 -26.010403 17.022366
RightToeBase 23.039589 -0.000000 -0.000000
